<?xml version="1.0" standalone="no"?>
<!DOCTYPE svg PUBLIC "-//W3C//DTD SVG 20010904//EN"
 "http://www.w3.org/TR/2001/REC-SVG-20010904/DTD/svg10.dtd">
<svg version="1.0" xmlns="http://www.w3.org/2000/svg"
 width="300.000000pt" height="220.000000pt" viewBox="0 0 300.000000 220.000000"
 preserveAspectRatio="xMidYMid meet">
<metadata>
Created by potrace 1.10, written by Peter Selinger 2001-2011
</metadata>
<g transform="translate(0.000000,220.000000) scale(0.100000,-0.100000)" stroke="none" fill="#ffffff">
<path fill="#ffffff" d="M848 1511 l-33 -29 0 -382 0 -382 33 -29 32 -29 620 0 620 0 32 29
33 29 3 363 c3 387 1 402 -46 439 -24 19 -43 20 -643 20 l-619 0 -32 -29z
m1252 -18 c0 -17 -534 -499 -566 -512 -29 -12 -39 -12 -68 0 -32 13 -566 495
-566 512 0 4 270 7 600 7 330 0 600 -3 600 -7z m-1115 -145 c33 -30 105 -97
160 -147 55 -51 100 -97 100 -102 0 -14 -378 -358 -387 -353 -10 6 -11 698 -1
708 4 3 20 -6 37 -22 17 -15 58 -53 91 -84z m1165 -248 c0 -192 -4 -351 -8
-354 -7 -4 -384 336 -390 352 -2 6 95 98 332 314 28 25 54 44 59 41 4 -2 7
-161 7 -353z m-806 -82 c128 -119 187 -118 311 1 l56 54 37 -35 c20 -20 107
-99 192 -177 85 -78 157 -146 158 -152 2 -5 -229 -9 -604 -9 -529 0 -606 2
-594 14 19 19 385 355 386 356 1 0 27 -24 58 -52z"/>
</g>
</svg>
