<?xml version="1.0" encoding="UTF-8"?>
<!DOCTYPE svg PUBLIC "-//W3C//DTD SVG 1.1//EN" "http://www.w3.org/Graphics/SVG/1.1/DTD/svg11.dtd">
<svg xmlns="http://www.w3.org/2000/svg" version="1.1" width="69px" height="69px" style="shape-rendering:geometricPrecision; text-rendering:geometricPrecision; image-rendering:optimizeQuality; fill-rule:evenodd; clip-rule:evenodd" xmlns:xlink="http://www.w3.org/1999/xlink">
<g><path style="opacity:1" fill="#51535c" d="M 32.5,-0.5 C 33.5,-0.5 34.5,-0.5 35.5,-0.5C 35.5,4.16667 35.5,8.83333 35.5,13.5C 34.5,13.5 33.5,13.5 32.5,13.5C 32.5,8.83333 32.5,4.16667 32.5,-0.5 Z"/></g>
<g><path style="opacity:1" fill="#51535c" d="M 10.5,8.5 C 15.7076,11.0324 19.0409,15.0324 20.5,20.5C 15.8498,18.3714 11.8498,15.2048 8.5,11C 9.38053,10.2917 10.0472,9.45837 10.5,8.5 Z"/></g>
<g><path style="opacity:0.949" fill="#51535c" d="M 55.5,8.5 C 57.1958,8.68535 58.5291,9.51869 59.5,11C 56.1502,15.2048 52.1502,18.3714 47.5,20.5C 47.3433,19.1266 47.51,17.7932 48,16.5C 50.705,13.9638 53.205,11.2971 55.5,8.5 Z"/></g>
<g><path style="opacity:1" fill="#51535c" d="M -0.5,32.5 C 4.69122,32.0585 9.69122,32.5585 14.5,34C 9.69122,35.4415 4.69122,35.9415 -0.5,35.5C -0.5,34.5 -0.5,33.5 -0.5,32.5 Z"/></g>
<g><path style="opacity:1" fill="#51535c" d="M 68.5,32.5 C 68.5,33.5 68.5,34.5 68.5,35.5C 63.3088,35.9415 58.3088,35.4415 53.5,34C 58.3088,32.5585 63.3088,32.0585 68.5,32.5 Z"/></g>
<g><path style="opacity:1" fill="#51535c" d="M 17.5,46.5 C 19.1958,46.6854 20.5291,47.5187 21.5,49C 18.1502,53.2048 14.1502,56.3714 9.5,58.5C 9.34332,57.1266 9.50999,55.7932 10,54.5C 12.705,51.9638 15.205,49.2971 17.5,46.5 Z"/></g>
<g><path style="opacity:1" fill="#51535c" d="M 48.5,46.5 C 52.5698,49.0604 56.2365,52.2271 59.5,56C 58.6867,57.8847 57.3533,58.5513 55.5,58C 52.5,55 49.5,52 46.5,49C 47.3805,48.2917 48.0472,47.4584 48.5,46.5 Z"/></g>
<g><path style="opacity:1" fill="#51535c" d="M 35.5,68.5 C 34.5,68.5 33.5,68.5 32.5,68.5C 32.5,63.5 32.5,58.5 32.5,53.5C 33.5,53.5 34.5,53.5 35.5,53.5C 35.5,58.5 35.5,63.5 35.5,68.5 Z"/></g>
</svg>
